<svg width="32" height="30" viewBox="0 0 32 30" fill="none" xmlns="http://www.w3.org/2000/svg">
<path d="M17.8666 20.0438C18.1749 20.0438 18.4484 19.9344 18.6871 19.7155C18.9357 19.4967 19.1297 19.1586 19.2689 18.7011C19.4181 18.2435 19.4927 17.6567 19.4927 16.9406C19.4927 16.2245 19.4181 15.6377 19.2689 15.1802C19.1297 14.7227 18.9357 14.3845 18.6871 14.1657C18.4484 13.9469 18.1749 13.8375 17.8666 13.8375C17.5582 13.8375 17.2797 13.9469 17.0311 14.1657C16.7924 14.3845 16.5984 14.7227 16.4493 15.1802C16.31 15.6377 16.2404 16.2245 16.2404 16.9406C16.2404 17.6567 16.31 18.2435 16.4493 18.7011C16.5984 19.1586 16.7924 19.4967 17.0311 19.7155C17.2797 19.9344 17.5582 20.0438 17.8666 20.0438Z" fill="white"/>
<path fill-rule="evenodd" clip-rule="evenodd" d="M8.21622 25.6216C8.36127 25.6216 8.50544 25.6179 8.64865 25.6104V25.6216H24.2162V25.5681C24.4995 25.6034 24.7882 25.6216 25.0811 25.6216C28.9023 25.6216 32 22.5239 32 18.7027C32 14.8815 28.9023 11.7838 25.0811 11.7838C25.0288 11.7838 24.9766 11.7844 24.9245 11.7855C24.1118 7.35635 20.2316 4 15.5676 4C11.8378 4 8.60928 6.14638 7.0499 9.27134C3.06459 9.83768 0 13.2637 0 17.4054C0 21.9431 3.67853 25.6216 8.21622 25.6216ZM6.93677 21.6998C7.57331 22.1175 8.28444 22.3264 9.07017 22.3264C9.69677 22.3264 10.2786 22.1871 10.8157 21.9086C11.3528 21.6301 11.8103 21.2224 12.1882 20.6853C12.5761 20.1482 12.8496 19.5017 13.0088 18.7458L10.756 18.164C10.6665 18.7906 10.4676 19.263 10.1593 19.5813C9.86088 19.8896 9.52271 20.0438 9.14477 20.0438C8.8265 20.0438 8.53806 19.9393 8.27947 19.7305C8.03082 19.5216 7.8319 19.1884 7.68271 18.7309C7.53352 18.2734 7.45893 17.6766 7.45893 16.9406C7.45893 16.1947 7.53352 15.5979 7.68271 15.1504C7.8319 14.6928 8.03082 14.3597 8.27947 14.1508C8.53806 13.9419 8.8265 13.8375 9.14477 13.8375C9.52271 13.8375 9.86088 13.9966 10.1593 14.3149C10.4676 14.6232 10.6665 15.0907 10.756 15.7173L13.0088 15.1354C12.8496 14.3696 12.5761 13.7231 12.1882 13.196C11.8103 12.6589 11.3528 12.2511 10.8157 11.9726C10.2786 11.6941 9.69677 11.5549 9.07017 11.5549C8.28444 11.5549 7.57331 11.7638 6.93677 12.1815C6.31017 12.5992 5.8079 13.2109 5.42996 14.0165C5.06196 14.8122 4.87796 15.7869 4.87796 16.9406C4.87796 18.0944 5.06196 19.074 5.42996 19.8797C5.8079 20.6753 6.31017 21.282 6.93677 21.6998ZM17.8666 22.3264C17.0808 22.3264 16.3697 22.1175 15.7331 21.6998C15.0966 21.282 14.5894 20.6753 14.2114 19.8797C13.8434 19.074 13.6594 18.0944 13.6594 16.9406C13.6594 15.7869 13.8434 14.8122 14.2114 14.0165C14.5894 13.2109 15.0966 12.5992 15.7331 12.1815C16.3697 11.7638 17.0808 11.5549 17.8666 11.5549C18.6523 11.5549 19.3634 11.7638 20 12.1815C20.6365 12.5992 21.1388 13.2109 21.5068 14.0165C21.8847 14.8122 22.0737 15.7869 22.0737 16.9406C22.0737 18.0944 21.8847 19.074 21.5068 19.8797C21.1388 20.6753 20.6365 21.282 20 21.6998C19.3634 22.1175 18.6523 22.3264 17.8666 22.3264ZM22.7629 22.1621V21.2048L25.3389 18.6549C25.4375 18.5621 25.5158 18.4721 25.5738 18.3851C25.6319 18.2923 25.6754 18.1994 25.7044 18.1066C25.7334 18.0138 25.7479 17.921 25.7479 17.8281C25.7479 17.6309 25.6609 17.4684 25.4868 17.3408C25.3186 17.2073 25.1068 17.1406 24.8515 17.1406C24.5788 17.1406 24.3236 17.1986 24.0857 17.3147C23.8478 17.4249 23.5896 17.6164 23.3111 17.889L22.5627 16.9753C22.9108 16.6446 23.2792 16.3951 23.668 16.2268C24.0625 16.0586 24.4715 15.9745 24.895 15.9745C25.3302 15.9745 25.7073 16.0499 26.0264 16.2007C26.3513 16.3458 26.6037 16.5517 26.7835 16.8186C26.9634 17.0797 27.0533 17.3872 27.0533 17.7411C27.0533 17.9326 27.0243 18.1182 26.9663 18.2981C26.9141 18.4721 26.8299 18.6433 26.7139 18.8115C26.5979 18.9798 26.447 19.1538 26.2614 19.3337L24.5034 21.0307L27.1403 21.022V22.1621H22.7629Z" fill="white"/>
</svg>
