<svg width="32" height="30" viewBox="0 0 32 30" fill="none" xmlns="http://www.w3.org/2000/svg">
<path d="M1.63474 8.84615C1.17156 8.84615 0.783585 8.69108 0.470805 8.38092C0.156935 8.07185 0 7.68846 0 7.23077C0 6.77308 0.156935 6.38915 0.470805 6.079C0.783585 5.76992 1.17156 5.61538 1.63474 5.61538H6.53895C7.00213 5.61538 7.39065 5.76992 7.70452 6.079C8.0173 6.38915 8.17369 6.77308 8.17369 7.23077C8.17369 7.68846 8.0173 8.07185 7.70452 8.38092C7.39065 8.69108 7.00213 8.84615 6.53895 8.84615H1.63474ZM1.63474 16.9231C1.17156 16.9231 0.783585 16.768 0.470805 16.4578C0.156935 16.1488 0 15.7654 0 15.3077C0 14.85 0.156935 14.4661 0.470805 14.1559C0.783585 13.8468 1.17156 13.6923 1.63474 13.6923H6.53895C7.00213 13.6923 7.39065 13.8468 7.70452 14.1559C8.0173 14.4661 8.17369 14.85 8.17369 15.3077C8.17369 15.7654 8.0173 16.1488 7.70452 16.4578C7.39065 16.768 7.00213 16.9231 6.53895 16.9231H1.63474ZM29.2618 23.8692L24.1124 18.7808C23.4585 19.2385 22.7436 19.5815 21.9676 19.8098C21.1906 20.0392 20.407 20.1538 19.6169 20.1538C17.3555 20.1538 15.4281 19.3661 13.8348 17.7905C12.2404 16.2161 11.4432 14.3115 11.4432 12.0769C11.4432 9.84231 12.2404 7.93723 13.8348 6.36169C15.4281 4.78723 17.3555 4 19.6169 4C21.8782 4 23.8061 4.78723 25.4006 6.36169C26.9939 7.93723 27.7905 9.84231 27.7905 12.0769C27.7905 12.8577 27.675 13.632 27.444 14.3998C27.2119 15.1666 26.8642 15.8731 26.401 16.5192L31.5504 21.6077C31.8501 21.9038 32 22.2808 32 22.7385C32 23.1962 31.8501 23.5731 31.5504 23.8692C31.2507 24.1654 30.8693 24.3135 30.4061 24.3135C29.943 24.3135 29.5615 24.1654 29.2618 23.8692ZM19.6169 16.9231C20.9791 16.9231 22.1371 16.4519 23.0907 15.5096C24.0443 14.5673 24.5211 13.4231 24.5211 12.0769C24.5211 10.7308 24.0443 9.58654 23.0907 8.64423C22.1371 7.70192 20.9791 7.23077 19.6169 7.23077C18.2546 7.23077 17.0966 7.70192 16.143 8.64423C15.1894 9.58654 14.7126 10.7308 14.7126 12.0769C14.7126 13.4231 15.1894 14.5673 16.143 15.5096C17.0966 16.4519 18.2546 16.9231 19.6169 16.9231ZM1.63474 25C1.17156 25 0.783585 24.8449 0.470805 24.5348C0.156935 24.2257 0 23.8423 0 23.3846C0 22.9269 0.156935 22.5435 0.470805 22.2345C0.783585 21.9243 1.17156 21.7692 1.63474 21.7692H14.7126C15.1758 21.7692 15.5643 21.9243 15.8782 22.2345C16.191 22.5435 16.3474 22.9269 16.3474 23.3846C16.3474 23.8423 16.191 24.2257 15.8782 24.5348C15.5643 24.8449 15.1758 25 14.7126 25H1.63474Z" fill="white"/>
</svg>
